<svg width="16" height="16" viewBox="0 0 16 16" fill="none" xmlns="http://www.w3.org/2000/svg">
<path d="M13.5537 15.1767L13.731 15.3542L13.9079 15.1762L15.1773 13.8986L15.353 13.7217L15.1767 13.5455L9.62762 8L15.1767 2.45447L15.3537 2.27763L15.1767 2.1008L13.9073 0.832164L13.7305 0.655558L13.5538 0.832164L8.00464 6.37778L2.45532 0.823305L2.2786 0.646421L2.10174 0.823166L0.82328 2.1008L0.646194 2.27777L0.823419 2.45461L6.3811 8L0.823419 13.5454L0.646194 13.7222L0.82328 13.8992L2.10174 15.1768L2.2786 15.3536L2.45532 15.1767L8.0045 9.62236L13.5537 15.1767Z" fill="#FF327F" stroke="#FF327F" stroke-width="0.5"/>
</svg>
